# xmcd
#
# Track frame offsets:
#	150
#	16297
#	29060
#	45072
#	61462
#	79965
#	96052
#	109437
#	123920
#	139322
#	152802
#	176647
#	191945
#	206480
#	221917
#	237897
#
# Disc length: 3362 seconds
#
# Revision: 3
# Processed by: cddbd v1.5.2PL0 Copyright (c) Steve Scherf et al.
# Submitted via: audiograbber 1.83.01
#
DISCID=e90d2010
DTITLE=John Williamson - The Way It Is
DYEAR=1999
DGENRE=Country
TTITLE0=Campfire On The Road
TTITLE1=A Thousand Feet (Duet with Warren H. Williams)
TTITLE2=Three Sons
TTITLE3=Queensland Bungalow
TTITLE4=Wonthaggi
TTITLE5=Mountain Hideaway
TTITLE6=Singing In The Rain
TTITLE7=Would I Be The One
TTITLE8=We're Still Here
TTITLE9=Happy Birthday My Old Friend
TTITLE10=Railwayman
TTITLE11=Great Ocean Road
TTITLE12=Purple Roses
TTITLE13=Do I Love You?
TTITLE14=Thargomindah (The Way It Is)
TTITLE15=The Land Of The Truly Free
EXTD=\nYEAR: 1999  ID3G:   2
EXTT0=
EXTT1=
EXTT2=
EXTT3=
EXTT4=
EXTT5=
EXTT6=
EXTT7=
EXTT8=
EXTT9=
EXTT10=
EXTT11=
EXTT12=
EXTT13=
EXTT14=
EXTT15=
PLAYORDER=
